# This file uses centimeters as units for non-parametric coordinates.

mtllib plane_BW.mtl
g default
v -0.500000 0.000000 0.500000
v 0.500000 0.000000 0.500000
v 0.500000 0.000000 -0.500000
v -0.500000 0.000000 -0.500000
vt 1.000000 0.900000
vt 0.566667 0.866667
vt 0.000000 0.300000
vt 0.550000 0.000000
vn 0.000000 1.000000 0.000000
vn 0.000000 1.000000 0.000000
vn 0.000000 1.000000 0.000000
vn 0.000000 1.000000 0.000000
s 1
g pPlane1
usemtl initialShadingGroup1
f 3/1/1 4/2/2 2/4/3
f 2/4/3 4/2/2 1/3/4
